<svg width="16" height="16" viewBox="0 0 16 16" fill="none" xmlns="http://www.w3.org/2000/svg">
<g clip-path="url(#clip0_2575_12993)">
<path d="M5.31801 13.47L6.09401 12.694C6.70866 12.8982 7.35232 13.0016 8.00001 13C9.99901 13 11.74 12.044 13.225 10.413C13.8892 9.68177 14.4605 8.8713 14.926 8.00002C14.4605 7.12874 13.8892 6.31827 13.225 5.58702L13.214 5.57502L13.921 4.86702C15.28 6.34302 15.966 7.84302 15.979 7.87302C15.993 7.90369 16 7.93636 16 7.97102V8.03102C16.0002 8.06439 15.9933 8.09743 15.98 8.12802C15.952 8.18802 13.291 14 8.00001 14C7.07986 14.0013 6.16849 13.8212 5.31801 13.47ZM2.04001 11.092C0.707009 9.62902 0.0340089 8.15802 0.0200089 8.12802C0.00653373 8.09712 -0.000280902 8.06373 8.868e-06 8.03002V7.97102C8.868e-06 7.93636 0.00667553 7.90369 0.0200089 7.87302C0.0480089 7.81302 2.70901 2.00002 8.00001 2.00002C8.96201 2.00002 9.83701 2.19202 10.625 2.50702L9.84501 3.28702C9.24875 3.09566 8.62622 2.99882 8.00001 3.00002C6.00001 3.00002 4.26001 3.95602 2.77501 5.58702C2.11078 6.31859 1.53946 7.12939 1.07401 8.00102C1.5332 8.86037 2.09533 9.66059 2.74801 10.384L2.04001 11.092ZM8.36201 4.77002L7.25501 5.87702C6.93707 5.98936 6.64829 6.17142 6.40985 6.40986C6.17141 6.6483 5.98935 6.93708 5.87701 7.25502L4.77001 8.36202C4.71601 7.87717 4.77178 7.38638 4.9332 6.92601C5.09462 6.46564 5.35755 6.04749 5.70251 5.70252C6.04747 5.35756 6.46563 5.09463 6.926 4.93321C7.38637 4.77179 7.87716 4.71602 8.36201 4.77002ZM11.222 7.56702C11.24 7.70902 11.2493 7.85335 11.25 8.00002C11.2494 8.46319 11.1498 8.92088 10.9581 9.34249C10.7664 9.76411 10.4868 10.1399 10.1382 10.4448C9.78953 10.7498 9.37981 10.9767 8.93641 11.1106C8.493 11.2444 8.02613 11.2821 7.56701 11.221L8.62801 10.161C8.99154 10.0545 9.32246 9.85822 9.59033 9.59034C9.8582 9.32247 10.0544 8.99156 10.161 8.62802L11.222 7.56702ZM1.85401 14.854C1.80752 14.9005 1.75233 14.9374 1.69159 14.9625C1.63085 14.9877 1.56575 15.0007 1.50001 15.0007C1.43426 15.0007 1.36916 14.9877 1.30843 14.9625C1.24769 14.9374 1.1925 14.9005 1.14601 14.854C1.09952 14.8075 1.06264 14.7523 1.03749 14.6916C1.01233 14.6309 0.999377 14.5658 0.999377 14.5C0.999377 14.4343 1.01233 14.3692 1.03749 14.3084C1.06264 14.2477 1.09952 14.1925 1.14601 14.146L14.146 1.14602C14.1925 1.09953 14.2477 1.06266 14.3084 1.0375C14.3692 1.01234 14.4343 0.99939 14.5 0.99939C14.5658 0.99939 14.6309 1.01234 14.6916 1.0375C14.7523 1.06266 14.8075 1.09953 14.854 1.14602C14.9005 1.19251 14.9374 1.2477 14.9625 1.30844C14.9877 1.36918 15.0006 1.43428 15.0006 1.50002C15.0006 1.56577 14.9877 1.63087 14.9625 1.6916C14.9374 1.75234 14.9005 1.80753 14.854 1.85402L1.85401 14.854Z" fill="black"/>
</g>
<defs>
<clipPath id="clip0_2575_12993">
<rect width="16" height="16" fill="white"/>
</clipPath>
</defs>
</svg>
