<svg width="24" height="24" viewBox="0 0 24 24" fill="none" xmlns="http://www.w3.org/2000/svg">
<path d="M21.1715 2.06C20.4547 1.93653 19.7289 1.87298 19.0015 1.87C16.5199 1.86796 14.09 2.57957 12.0015 3.92C9.9077 2.59717 7.4782 1.90303 5.00155 1.92C4.2742 1.92298 3.54835 1.98653 2.83155 2.11C2.59676 2.15048 2.38413 2.27346 2.23196 2.45679C2.0798 2.64013 1.99809 2.87177 2.00155 3.11V15.11C1.99941 15.2569 2.02968 15.4025 2.0902 15.5364C2.15072 15.6703 2.24002 15.7893 2.35172 15.8847C2.46343 15.9802 2.59481 16.0499 2.73651 16.0888C2.8782 16.1278 3.02674 16.135 3.17155 16.11C4.60457 15.8619 6.07275 15.9031 7.48962 16.2311C8.90648 16.5591 10.2434 17.1674 11.4215 18.02L11.5415 18.09H11.6515C11.7625 18.1362 11.8814 18.16 12.0015 18.16C12.1217 18.16 12.2406 18.1362 12.3516 18.09H12.4615L12.5815 18.02C13.7515 17.1483 15.0846 16.5203 16.5017 16.1734C17.9188 15.8264 19.3912 15.7674 20.8315 16C20.9764 16.025 21.1249 16.0178 21.2666 15.9788C21.4083 15.9399 21.5397 15.8702 21.6514 15.7747C21.7631 15.6793 21.8524 15.5603 21.9129 15.4264C21.9734 15.2925 22.0037 15.1469 22.0015 15V3C21.9911 2.77215 21.9032 2.55471 21.7522 2.38374C21.6012 2.21276 21.3964 2.09854 21.1715 2.06ZM11.0015 15.35C9.15143 14.3767 7.09207 13.8687 5.00155 13.87H4.00155V3.87C4.33461 3.8508 4.66849 3.8508 5.00155 3.87C7.13494 3.86764 9.22176 4.49369 11.0015 5.67V15.35ZM20.0015 13.91H19.0015C16.911 13.9087 14.8517 14.4167 13.0015 15.39V5.67C14.7813 4.49369 16.8682 3.86764 19.0015 3.87C19.3346 3.8508 19.6685 3.8508 20.0015 3.87V13.91ZM21.1715 18.06C20.4547 17.9365 19.7289 17.873 19.0015 17.87C16.5199 17.868 14.09 18.5796 12.0015 19.92C9.91306 18.5796 7.48318 17.868 5.00155 17.87C4.2742 17.873 3.54835 17.9365 2.83155 18.06C2.70138 18.0807 2.57657 18.1268 2.46431 18.1959C2.35205 18.265 2.25455 18.3555 2.17742 18.4624C2.10028 18.5693 2.04503 18.6903 2.01485 18.8186C1.98467 18.9469 1.98015 19.0799 2.00155 19.21C2.05237 19.4697 2.20404 19.6986 2.42334 19.8467C2.64264 19.9948 2.91169 20.0499 3.17155 20C4.60457 19.7519 6.07275 19.7931 7.48962 20.1211C8.90648 20.4491 10.2434 21.0574 11.4215 21.91C11.5909 22.0306 11.7936 22.0954 12.0015 22.0954C12.2095 22.0954 12.4122 22.0306 12.5815 21.91C13.7597 21.0574 15.0966 20.4491 16.5135 20.1211C17.9303 19.7931 19.3985 19.7519 20.8315 20C21.0914 20.0499 21.3605 19.9948 21.5798 19.8467C21.7991 19.6986 21.9507 19.4697 22.0015 19.21C22.0229 19.0799 22.0184 18.9469 21.9882 18.8186C21.9581 18.6903 21.9028 18.5693 21.8257 18.4624C21.7485 18.3555 21.651 18.265 21.5388 18.1959C21.4265 18.1268 21.3017 18.0807 21.1715 18.06Z" fill="white"/>
</svg>
