<svg width="124" height="124" viewBox="0 0 124 124" fill="none" xmlns="http://www.w3.org/2000/svg">
<rect width="124" height="124" rx="62" fill="#000080" fill-opacity="0.16"/>
<path d="M62.0007 20.3333C85.0132 20.3333 103.667 38.9874 103.667 61.9999C103.667 85.0124 85.0132 103.667 62.0007 103.667C38.9882 103.667 20.334 85.0124 20.334 61.9999C20.334 38.9874 38.9882 20.3333 62.0007 20.3333ZM76.7298 46.9208L56.1048 67.5458L47.2715 58.7083C46.8846 58.3211 46.4253 58.014 45.9198 57.8044C45.4142 57.5948 44.8723 57.4868 44.325 57.4866C43.2197 57.4862 42.1596 57.9249 41.3777 58.7062C40.5959 59.4875 40.1565 60.5473 40.1561 61.6526C40.1557 62.7579 40.5944 63.8181 41.3757 64.5999L52.8673 76.0916C53.2929 76.5174 53.7983 76.8552 54.3545 77.0857C54.9107 77.3162 55.5069 77.4348 56.109 77.4348C56.7111 77.4348 57.3072 77.3162 57.8635 77.0857C58.4197 76.8552 58.925 76.5174 59.3507 76.0916L82.6257 52.8166C83.4075 52.0347 83.8467 50.9744 83.8467 49.8687C83.8467 48.763 83.4075 47.7026 82.6257 46.9208C81.8438 46.1389 80.7834 45.6997 79.6777 45.6997C78.5721 45.6997 77.5117 46.1389 76.7298 46.9208Z" fill="#000080"/>
</svg>
